{"title":"The Dead Dont Scream 2007 DVDRip Xvid LKRG","uid":6512035,"size":840362334,"categoryP":"video","categoryS":"movies","magnet":"?xt=urn:btih:ee39694cd44937d4196bc7c7e460d5db92dfbef9&amp;dn=The+Dead+Dont+Scream+2007+DVDRip+Xvid+LKRG&amp;tr=udp%3A%2F%2Ftracker.openbittorrent.com%3A80&amp;tr=udp%3A%2F%2Fopen.demonii.com%3A1337&amp;tr=udp%3A%2F%2Ftracker.coppersurfer.tk%3A6969&amp;tr=udp%3A%2F%2Fexodus.desync.com%3A6969","seeders":0,"leechers":11,"uploader":".BONE.","files":2,"time":1309665190,"description":"PLOT\n\nA group of college students on a road trip to hell when they stumble across a small Texas town\nwith an entire economy based upon stealing cars. Unfortunately, for them, cars aren't the only\nthings getting chopped.\n &lt;a href=&quot;\nhttp://www.imdb.com/title/tt1331302/&quot; rel=&quot;nofollow&quot; target=&quot;_NEW&quot;&gt;\nhttp://www.imdb.com/title/tt1331302/&lt;/a&gt;\n\nEncoded By .......: BigPerm1828\nRuntime ..........: 1h 28mn\nFile Size ........: 801 MB\nResolution .......: 704x396\nIMDb URL .........: http://www.imdb.com/title/tt1331302/\nGenre ............: Horror\nLanguage .........: English\nVideo\nID : 0\nFormat : MPEG-4 Visual\nFormat profile : Advanced Simple@L5\nFormat settings, BVOP : Yes\nFormat settings, QPel : No\nFormat settings, GMC : No warppoints\nFormat settings, Matrix : Default (H.263)\nCodec ID : XVID\nCodec ID/Hint : XviD\nDuration : 1h 28mn\nBit rate : 1 073 Kbps\nWidth : 704 pixels\nHeight : 396 pixels\nDisplay aspect ratio : 16:9\nFrame rate : 23.976 fps\nColor space : YUV\nChroma subsampling : 4:2:0\nBit depth : 8 bits\nScan type : Progressive\nCompression mode : Lossy\nBits/(Pixel*Frame) : 0.160\nStream size : 677 MiB (84%)\nWriting library : XviD 1.2.1 (UTC 2008-12-04)\n\nAudio\nID : 1\nFormat : AC-3\nFormat/Info : Audio Coding 3\nMode extension : CM (complete main)\nCodec ID : 2000\nDuration : 1h 28mn\nBit rate mode : Constant\nBit rate : 192 Kbps\nChannel(s) : 2 channels\nChannel positions : Front: L R\nSampling rate : 48.0 KHz\nBit depth : 16 bits\nCompression mode : Lossy\nVideo delay : 42ms\nStream size : 121 MiB (15%)\nAlignment : Split accross interleaves\nInterleave, duration : 500 ms (11.99 video frames)\nInterleave, preload duration : 500 ms\n &lt;a href=&quot;\nhttp://leetleech.org/images/05765029839334107962.png&quot; rel=&quot;nofollow&quot; target=&quot;_NEW&quot;&gt;\nhttp://leetleech.org/images/05765029839334107962.png&lt;/a&gt;\n &lt;a href=&quot;\nhttp://leetleech.org/images/77832917800759240738.png&quot; rel=&quot;nofollow&quot; target=&quot;_NEW&quot;&gt;\nhttp://leetleech.org/images/77832917800759240738.png&lt;/a&gt;\n &lt;a href=&quot;\nhttp://leetleech.org/images/46653393204281502063.png&quot; rel=&quot;nofollow&quot; target=&quot;_NEW&quot;&gt;\nhttp://leetleech.org/images/46653393204281502063.png&lt;/a&gt;\n &lt;a href=&quot;\nhttp://leetleech.org/images/27837216694949559865.png&quot; rel=&quot;nofollow&quot; target=&quot;_NEW&quot;&gt;\nhttp://leetleech.org/images/27837216694949559865.png&lt;/a&gt;\n &lt;a href=&quot;\nhttp://leetleech.org/images/12321032182602167622.png&quot; rel=&quot;nofollow&quot; target=&quot;_NEW&quot;&gt;\nhttp://leetleech.org/images/12321032182602167622.png&lt;/a&gt;","torrent":{"xt":"urn:btih:ee39694cd44937d4196bc7c7e460d5db92dfbef9","amp;dn":"The+Dead+Dont+Scream+2007+DVDRip+Xvid+LKRG","amp;tr":["udp%3A%2F%2Ftracker.openbittorrent.com%3A80","udp%3A%2F%2Fopen.demonii.com%3A1337","udp%3A%2F%2Ftracker.coppersurfer.tk%3A6969","udp%3A%2F%2Fexodus.desync.com%3A6969"],"infoHash":"ee39694cd44937d4196bc7c7e460d5db92dfbef9","infoHashBuffer":{"type":"Buffer","data":[238,57,105,76,212,73,55,212,25,107,199,199,228,96,213,219,146,223,190,249]},"announce":[],"urlList":[]}}